<?xml version="1.0"?>
<svg xmlns="http://www.w3.org/2000/svg" xmlns:xlink="http://www.w3.org/1999/xlink" xmlns:svgjs="http://svgjs.com/svgjs" version="1.1" width="512" height="512" x="0" y="0" viewBox="0 0 512 512" style="enable-background:new 0 0 512 512" xml:space="preserve" class=""><g><g xmlns="http://www.w3.org/2000/svg"><path d="m334.365 237.094c-15.795-7.157-26.001-23.168-26.001-40.791v-91.568h-104.727v91.568c0 17.622-10.207 33.634-26.002 40.791-67.853 30.744-111.695 98.724-111.695 173.186 0 33.05 8.623 65.611 24.938 94.162l4.317 7.558h321.609l4.318-7.559c16.314-28.551 24.938-61.112 24.938-94.162.001-74.462-43.842-142.441-111.695-173.185zm-144.349 27.326c26.499-12.007 43.621-38.745 43.621-68.117v-61.568h44.728v61.568c0 29.373 17.122 56.11 43.62 68.117 51.541 23.353 86.621 72.214 93.012 127.58h-317.994c6.392-55.366 41.472-104.227 93.013-127.58zm-77.142 217.58c-9.359-18.665-14.956-39.093-16.489-60h319.229c-1.532 20.907-7.13 41.335-16.489 60z" fill="#76c224" data-original="#000000" style="" class=""/><path d="m241 0h30v69.866h-30z" fill="#76c224" data-original="#000000" style="" class=""/><path d="m181 20h30v49.866h-30z" fill="#76c224" data-original="#000000" style="" class=""/><path d="m301 20h30v49.866h-30z" fill="#76c224" data-original="#000000" style="" class=""/><path d="m241 318.896h30v30h-30z" fill="#76c224" data-original="#000000" style="" class=""/></g></g></svg>
