<?xml version="1.0"?>
<svg xmlns="http://www.w3.org/2000/svg" xmlns:xlink="http://www.w3.org/1999/xlink" xmlns:svgjs="http://svgjs.com/svgjs" version="1.1" width="512" height="512" x="0" y="0" viewBox="0 0 510 510" style="enable-background:new 0 0 512 512" xml:space="preserve" class=""><g><g xmlns="http://www.w3.org/2000/svg"><path d="m495 240c-25.262 0-38.63 10.694-49.372 19.287-9.226 7.38-15.892 12.713-30.631 12.713s-21.405-5.333-30.631-12.713c-1.403-1.122-2.852-2.281-4.365-3.446v-90.841h50v-34.542l-86.973-130.458h-26.056l-86.972 130.458v34.542h50v98.666c-6.791 5.015-13.393 8.334-25.006 8.334-14.738 0-21.403-5.333-30.628-12.713-10.741-8.593-24.109-19.287-49.37-19.287-10.009 0-18.145 1.682-24.996 4.244v-244.244h-150v510h510v-270zm-231.972-105 66.972-100.458 66.972 100.458h-46.972v106.409c-4.495-.894-9.464-1.409-15.007-1.409-10.007 0-18.143 1.682-24.993 4.243v-109.243zm-233.028 345v-450h90v30h-45v30h45v30h-30v30h30v30h-45v30h45v30h-30v30h30v30h-45v30h45v30h-30v30h30v30h-45v30h45v30zm450 0h-330v-201.673c6.787-5.011 13.387-8.327 24.996-8.327 14.737 0 21.403 5.333 30.628 12.713 10.741 8.593 24.108 19.287 49.37 19.287s38.629-10.694 49.37-19.287c9.226-7.38 15.891-12.713 30.629-12.713 14.74 0 21.406 5.333 30.632 12.713 10.741 8.593 24.109 19.287 49.372 19.287s38.631-10.694 49.372-19.287c5.378-4.303 9.887-7.909 15.631-10.169z" fill="#76c224" data-original="#000000" style=""/></g></g></svg>
